<svg width="49" height="48" viewBox="0 0 49 48" fill="none" xmlns="http://www.w3.org/2000/svg">
<path d="M28.6806 5.3937C25.967 4.48917 23.0154 4.49511 20.3018 5.39964C19.1894 5.77043 18.3469 6.70224 18.097 7.84784L17.4295 10.9071C16.8903 13.3787 16.6206 14.6146 15.7746 15.4489C14.9286 16.2833 13.6891 16.5358 11.2102 17.0407L8.3741 17.6185C7.21464 17.8547 6.26901 18.6935 5.89482 19.8161C4.99029 22.5297 4.98908 25.4671 5.89362 28.1807C6.26866 29.3058 7.21784 30.1437 8.38082 30.3763L11.2704 30.9543C13.8053 31.4612 15.0728 31.7147 15.9292 32.5711C16.7856 33.4275 17.0391 34.695 17.5461 37.23L18.124 40.1195C18.3566 41.2825 19.1945 42.2317 20.3196 42.6067C23.0332 43.5112 25.967 43.5112 28.6806 42.6067C29.8057 42.2317 30.6437 41.2825 30.8763 40.1195L31.4542 37.23C31.9612 34.695 32.2147 33.4275 33.071 32.5711C33.9274 31.7147 35.1949 31.4612 37.7299 30.9543L40.6194 30.3763C41.7824 30.1437 42.7316 29.3058 43.1066 28.1807C44.0112 25.4671 44.0112 22.5333 43.1066 19.8197C42.7316 18.6946 41.7824 17.8567 40.6194 17.6241L37.7299 17.0462C35.1949 16.5392 33.9274 16.2857 33.071 15.4293C32.2147 14.5729 31.9612 13.3054 31.4542 10.7704L30.8763 7.8809C30.6437 6.71793 29.8057 5.76875 28.6806 5.3937Z" fill="#2563EB"/>
</svg>
