<svg width="21" height="22" viewBox="0 0 21 22" fill="none" xmlns="http://www.w3.org/2000/svg">
<g clip-path="url(#clip0_8_246)">
<path d="M6.14798 8.8419C5.86737 8.53578 5.38268 8.51027 5.07655 8.79088C4.77043 9.07149 4.74492 9.55619 5.02553 9.86231L8.87757 14.046C9.03064 14.199 9.20921 14.3011 9.41329 14.3011C9.41329 14.3011 9.41329 14.3011 9.4388 14.3011C9.64288 14.3011 9.84696 14.2245 9.97451 14.0715L19.7194 4.3521C20.0255 4.04598 20.0255 3.56129 19.7194 3.28067C19.4133 3.00006 18.9286 2.97455 18.648 3.28067L9.46431 12.4388L6.14798 8.8419Z" fill="#2563EB"/>
<path d="M19.5408 9.88775C19.1071 9.88775 18.7755 10.2194 18.7755 10.6531C18.7755 15.3979 14.898 19.2755 10.1531 19.2755C5.40816 19.2755 1.53061 15.3979 1.53061 10.6531C1.53061 5.90816 5.40816 2.03061 10.1531 2.03061C10.5867 2.03061 10.9184 1.69898 10.9184 1.26531C10.9184 0.831633 10.5867 0.5 10.1531 0.5C4.56633 0.5 0 5.06632 0 10.6531C0 16.2398 4.56633 20.8061 10.1531 20.8061C15.7398 20.8061 20.3061 16.2398 20.3061 10.6531C20.3061 10.2194 19.9745 9.88775 19.5408 9.88775Z" fill="#2563EB"/>
</g>
<defs>
<clipPath id="clip0_8_246">
<rect width="21" height="21" fill="white" transform="translate(0 0.5)"/>
</clipPath>
</defs>
</svg>
