<svg width="21" height="21" viewBox="0 0 21 21" fill="none" xmlns="http://www.w3.org/2000/svg">
<path d="M19.5408 9.88775C19.1071 9.88775 18.7755 10.2194 18.7755 10.6531C18.7755 15.3979 14.898 19.2755 10.1531 19.2755C5.40816 19.2755 1.53061 15.3979 1.53061 10.6531C1.53061 5.90816 5.40816 2.03061 10.1531 2.03061C10.5867 2.03061 10.9184 1.69898 10.9184 1.26531C10.9184 0.831633 10.5867 0.5 10.1531 0.5C4.56633 0.5 0 5.06632 0 10.6531C0 16.2398 4.56633 20.8061 10.1531 20.8061C15.7398 20.8061 20.3061 16.2398 20.3061 10.6531C20.3061 10.2194 19.9745 9.88775 19.5408 9.88775Z" fill="#111214"/>
</svg>
